Coordinates
version=1
nRows=37
nColumns=19
inDegrees=yes

Units are S.I. units (second, meters, Newtons, ...)
If the header above contains a line with 'inDegrees', this indicates whether rotational values are in degrees (yes) or radians (no).

endheader
time	pelvis_to_ground_rx	pelvis_to_ground_ry	pelvis_to_ground_rz	pelvis_to_ground_tx	pelvis_to_ground_ty	pelvis_to_ground_tz	left_hip_abduction	left_hip_rotation	left_hip_flexion	left_knee_flexion	left_ankle_flexion	left_subtalar_angle	right_hip_abduction	right_hip_rotation	right_hip_flexion	right_knee_flexion	right_ankle_flexion	right_subtalar_angle
      2.01000000	     82.99063726	      5.28536329	     -5.50124577	      0.13032440	     -0.75390273	      0.72580394	     -5.71927823	      9.02151859	     46.68050482	    -64.38060383	      2.09288642	    -13.37524530	     12.47355975	     10.56785122	      1.60480562	    -12.62313123	      3.39452416	     -2.51594296
      2.02000000	     82.99192088	      4.80345642	     -5.48514159	      0.14085166	     -0.75324618	      0.72468917	     -5.77199663	      8.81455498	     47.37050838	    -61.68703694	      1.98312413	    -13.06631956	     12.59553436	     10.82606832	      0.77821997	    -12.91946380	      3.53629299	     -2.38876879
      2.03000000	     83.01554258	      4.30760839	     -5.35706078	      0.15173082	     -0.75246307	      0.72351314	     -5.70049863	      8.50631072	     47.67739623	    -58.80315339	      1.58305330	    -12.38655295	     12.70648149	     11.07410972	     -0.18154751	    -13.26301776	      3.81129413	     -2.24686448
      2.04000000	     83.10475485	      3.74892718	     -5.23862447	      0.16296347	     -0.75149644	      0.72225649	     -5.58656472	      8.15601496	     47.73776048	    -55.79229748	      1.25138028	    -11.30487051	     12.70496171	     11.20422420	     -1.06841349	    -13.78778650	      4.15771501	     -1.94481299
      2.05000000	     83.17465595	      3.16930088	     -4.93707749	      0.17463882	     -0.75045434	      0.72089318	     -5.28540124	      7.72997620	     47.37514111	    -52.77028599	      0.98791598	    -10.74884306	     12.78125796	     11.49140381	     -2.21066344	    -14.30500087	      4.28215722	     -1.80096899
      2.06000000	     83.29278452	      2.58435949	     -4.63116061	      0.18671526	     -0.74929138	      0.71942842	     -4.88025290	      7.12633528	     46.76969649	    -49.79133906	      0.56859318	    -10.10120649	     12.79187075	     11.68686482	     -3.30533471	    -14.98511957	      4.40748525	     -1.66111250
      2.07000000	     83.45368912	      1.99719736	     -4.28364918	      0.19920363	     -0.74803301	      0.71784752	     -4.38358629	      6.37336073	     45.92993514	    -46.97234311	      0.15565658	     -9.49951616	     12.76073732	     11.82441785	     -4.39605916	    -15.82462919	      4.49574654	     -1.50625352
      2.08000000	     83.67270077	      1.42252231	     -3.91108668	      0.21207985	     -0.74670679	      0.71615799	     -3.83624009	      5.46328495	     44.91449339	    -44.40971556	     -0.21979153	     -8.99593522	     12.66594866	     11.86187059	     -5.44066934	    -16.85024195	      4.53122509	     -1.34346986
      2.09000000	     83.96697928	      0.87320122	     -3.53723606	      0.22530335	     -0.74531310	      0.71438721	     -3.29877351	      4.40656981	     43.79456754	    -42.19055682	     -0.51999031	     -8.63972748	     12.47433197	     11.76127518	     -6.39369775	    -18.07134492	      4.49417694	     -1.19213443
      2.10000000	     84.34407373	      0.37327126	     -3.22322445	      0.23882469	     -0.74386945	      0.71258570	     -2.80795248	      3.17111420	     42.66457935	    -40.37127908	     -0.69002149	     -8.43535115	     12.16333515	     11.51351423	     -7.17520685	    -19.48623311	      4.38593049	     -1.09507509
      2.11000000	     84.84838896	     -0.07932330	     -2.91764214	      0.25260000	     -0.74238621	      0.71076926	     -2.49987043	      1.89973704	     41.53422605	    -39.01510620	     -0.80682592	     -8.34967642	     11.66974248	     11.03442905	     -7.80361325	    -21.12599839	      4.17868138	     -1.00311102
      2.12000000	     85.47567922	     -0.48281623	     -2.67798433	      0.26658396	     -0.74082880	      0.70903911	     -2.38701873	      0.56696638	     40.45352773	    -38.09407634	     -1.05109586	     -8.93618217	     10.97804456	     10.34482125	     -8.22430736	    -22.94151673	      3.44955193	     -0.54414409
      2.13000000	     86.23582065	     -0.81316401	     -2.50863415	      0.28069389	     -0.73922538	      0.70739718	     -2.54015331	     -0.75111341	     39.47312823	    -37.63360433	     -0.92361497	     -9.55544138	     10.07498990	      9.42661776	     -8.40596147	    -24.95606406	      2.85592485	     -0.48063356
      2.14000000	     87.12343247	     -1.08706852	     -2.47581469	      0.29487993	     -0.73754635	      0.70593417	     -2.98097174	     -1.98541982	     38.65171027	    -37.56445413	     -0.73016635	    -10.31652865	      8.94946038	      8.30713552	     -8.28045100	    -27.13714467	      1.97925815	     -0.50603072
      2.15000000	     88.12431920	     -1.27429293	     -2.50554619	      0.30911343	     -0.73581573	      0.70472928	     -3.66562844	     -3.21339497	     37.85708873	    -37.75975829	     -0.39198119	    -11.08621914	      7.67231250	      7.03419979	     -7.96443858	    -29.40907984	      0.93884371	     -0.62393824
      2.16000000	     89.20380618	     -1.39169413	     -2.58416486	      0.32333382	     -0.73404986	      0.70375612	     -4.64317674	     -4.17846665	     37.13764265	    -38.23222463	      0.03824945	    -11.92270638	      6.26611376	      5.56483061	     -7.44518113	    -31.79572973	     -0.31995851	     -0.87537471
      2.17000000	     90.35727285	     -1.41850112	     -2.71718704	      0.33749908	     -0.73225793	      0.70314074	     -5.81636801	     -5.06471849	     36.39048180	    -38.76235844	      0.52978850	    -12.68225734	      4.78666574	      3.98822298	     -6.75537628	    -34.22668869	     -1.67828599	     -1.24239955
      2.18000000	     91.55400221	     -1.40712022	     -2.89485005	      0.35154273	     -0.73043863	      0.70293381	     -7.16194851	     -5.72442810	     35.59144451	    -39.23760367	      1.07109980	    -13.40224262	      3.28528016	      2.38460917	     -5.89336109	    -36.70448148	     -3.20526430	     -1.79708492
      2.19000000	     92.74199928	     -1.29374168	     -3.16415560	      0.36540568	     -0.72866185	      0.70317872	     -8.56184656	     -6.28826803	     34.77122712	    -39.58043754	      1.40085674	    -14.01139733	      1.85598384	      0.74842280	     -4.83298789	    -39.16382808	     -4.92596673	     -3.25023180
      2.20000000	     93.91815851	     -1.11923330	     -3.38469318	      0.37908161	     -0.72690080	      0.70387447	    -10.01862962	     -6.65491660	     33.77282814	    -39.71787740	      1.97344887	    -14.31934946	      0.49223179	     -0.93890418	     -3.70298964	    -41.62827083	     -6.08161598	     -3.39175608
      2.21000000	     95.02499639	     -0.88500302	     -3.72669682	      0.39248352	     -0.72520336	      0.70510850	    -11.39061440	     -6.94085910	     32.75220630	    -39.56143762	      2.47371073	    -14.34695465	     -0.68698713	     -2.53268144	     -2.34081162	    -44.02522960	     -7.53213751	     -4.61276441
      2.22000000	     96.07683479	     -0.61968281	     -4.03135102	      0.40562345	     -0.72353506	      0.70683094	    -12.68622072	     -7.13397497	     31.53662119	    -39.06807957	      2.64211726	    -14.35073635	     -1.72242946	     -4.06939715	     -0.89330277	    -46.37860510	     -7.89040811	     -4.72032146
      2.23000000	     96.98721407	     -0.29822230	     -4.37135689	      0.41847874	     -0.72195892	      0.70903026	    -13.80226975	     -7.22415130	     30.25848155	    -38.30617586	      3.11553198	    -14.19512838	     -2.50187407	     -5.52985603	      0.69487051	    -48.60194282	     -9.06533469	     -5.06385424
      2.24000000	     97.79640680	      0.03194261	     -4.68359329	      0.43105352	     -0.72042947	      0.71166852	    -14.74176286	     -7.32765596	     28.81287470	    -37.19869993	      3.16543088	    -14.02389902	     -3.07684822	     -6.83832495	      2.36735431	    -50.70645206	     -9.18594028	     -5.30505967
      2.25000000	     98.45228281	      0.37694089	     -4.99417514	      0.44332749	     -0.71898202	      0.71465320	    -15.48172881	     -7.34018887	     27.32780221	    -35.90131900	      3.12932607	    -12.98559487	     -3.39864001	     -7.99792851	      4.14682350	    -52.64991131	     -9.61498950	     -6.05680032
      2.26000000	     98.97844977	      0.71891678	     -5.17647428	      0.45535838	     -0.71755650	      0.71789997	    -16.01672371	     -7.44653766	     25.62906968	    -34.36771059	      3.18623367	    -12.77314217	     -3.54476010	     -9.01928701	      5.88894347	    -54.42109354	     -9.59295873	     -6.19723749
      2.27000000	     99.36080082	      1.05949166	     -5.30744250	      0.46711823	     -0.71618611	      0.72132636	    -16.34926970	     -7.62668484	     23.86339159	    -32.71217945	      3.06672314	    -12.35596709	     -3.49974990	     -9.89380183	      7.66879888	    -56.00005525	     -9.42109518	     -6.37444371
      2.28000000	     99.60978586	      1.35953263	     -5.36659222	      0.47862737	     -0.71486634	      0.72481951	    -16.53483637	     -7.70819621	     22.08501508	    -31.04408071	      2.55956378	    -11.19728516	     -3.29557276	    -10.57090285	      9.45728902	    -57.38426117	     -8.73160386	     -6.67674511
      2.29000000	     99.75081883	      1.67341529	     -5.30245653	      0.48990320	     -0.71357737	      0.72829398	    -16.56342427	     -8.05875985	     20.18311313	    -29.35295160	      2.46290996	    -10.78116565	     -3.00428421	    -11.15624673	     11.16975952	    -58.54922608	     -8.48179769	     -6.79602687
      2.30000000	     99.77569504	      1.95037222	     -5.18047466	      0.50092528	     -0.71235398	      0.73167229	    -16.48619169	     -8.34352513	     18.34236877	    -27.78611439	      1.85411841	     -9.69967980	     -2.60411089	    -11.55060085	     12.87254317	    -59.49965604	     -7.48875300	     -7.08872992
      2.31000000	     99.74130309	      2.24328835	     -4.96747516	      0.51171388	     -0.71116541	      0.73486389	    -16.34283463	     -8.89950561	     16.46328921	    -26.32212722	      1.68712863	     -9.24063165	     -2.19920349	    -11.88417633	     14.50898590	    -60.23678890	     -7.11126882	     -7.22967575
      2.32000000	     99.65533088	      2.53265051	     -4.71898858	      0.52227139	     -0.71005472	      0.73780133	    -16.17713153	     -9.46873806	     14.68060976	    -25.06332112	      1.34815877	     -8.70913605	     -1.78811289	    -12.12356182	     16.13025901	    -60.76718389	     -6.53239580	     -7.48882343
      2.33000000	     99.51580345	      2.80439958	     -4.44322308	      0.53258042	     -0.70902654	      0.74042884	    -16.00261466	     -9.85653627	     13.06555399	    -24.09353678	      0.66785789	     -7.92448652	     -1.37158561	    -12.22285548	     17.73284023	    -61.08704035	     -5.44866381	     -7.94509184
      2.34000000	     99.40737368	      3.09620266	     -4.16329414	      0.54266286	     -0.70804349	      0.74269942	    -15.89014439	    -10.36382714	     11.54318397	    -23.31723781	      0.32640886	     -7.41431827	     -1.06012964	    -12.30504303	     19.33689241	    -61.21998523	     -4.79641624	     -8.22964389
      2.35000000	     99.30767585	      3.42512951	     -3.87369498	      0.55253552	     -0.70714673	      0.74458882	    -15.82280586	    -10.89031551	     10.12544186	    -22.75840643	      0.17565361	     -7.13504143	     -0.82673386	    -12.36746259	     20.91457061	    -61.14347658	     -4.48148760	     -8.42483330
      2.36000000	     99.22976759	      3.77821379	     -3.63088171	      0.56220712	     -0.70634985	      0.74607881	    -15.80357238	    -11.31695015	      8.88543004	    -22.42175209	     -0.06836597	     -6.83082237	     -0.67173919	    -12.37228727	     22.51782929	    -60.85904838	     -4.03347245	     -8.72466791
      2.37000000	     99.17661630	      4.16015547	     -3.41236409	      0.57170713	     -0.70563944	      0.74715158	    -15.83242960	    -11.58426154	      7.79614689	    -22.29818258	     -0.28453287	     -6.56302295	     -0.61139916	    -12.35697995	     24.11008735	    -60.35733379	     -3.61873167	     -9.01434015
